<svg xmlns="http://www.w3.org/2000/svg" version="1.1" xmlns:xlink="http://www.w3.org/1999/xlink" xmlns:svgjs="http://svgjs.dev/svgjs" width="2000" height="348" viewBox="0 0 2000 348"><g transform="matrix(1,0,0,1,-1.2121212121212466,0.5550445827533679)"><svg viewBox="0 0 396 69" data-background-color="#ffffff" preserveAspectRatio="xMidYMid meet" height="348" width="2000" xmlns="http://www.w3.org/2000/svg" xmlns:xlink="http://www.w3.org/1999/xlink"><g id="tight-bounds" transform="matrix(1,0,0,1,0.2400000000000091,-0.11005194313213451)"><svg viewBox="0 0 395.52 69.22010388626428" height="69.22010388626428" width="395.52"><g><svg viewBox="0 0 462.2583065257353 80.89999999999999" height="69.22010388626428" width="395.52"><g><svg viewBox="0 0 462.2583065257353 80.89999999999999" height="80.89999999999999" width="462.2583065257353"><g id="textblocktransform"><svg viewBox="0 0 462.2583065257353 80.89999999999999" height="80.89999999999999" width="462.2583065257353" id="textblock"><g><svg viewBox="0 0 462.2583065257353 80.89999999999999" height="80.89999999999999" width="462.2583065257353"><g><svg><g></g><g></g></svg></g><g><svg><g></g><g><svg></svg></g></svg></g><g id="text-0"><svg viewBox="0 0 462.2583065257353 80.89999999999999" height="80.89999999999999" width="462.2583065257353"><g transform="matrix(1,0,0,1,0,16.5974609375)"><svg width="196.63085937499997" viewBox="4.91 -35.69 196.61 47.699999999999996" height="47.70507812499999" data-palette-color="#010c80"><path d="M24.05 0L20.7 0 8.59-31.64 8.4-31.64Q8.74-27.88 8.74-22.71L8.74-22.71 8.74 0 4.91 0 4.91-35.69 11.16-35.69 22.46-6.25 22.66-6.25 34.06-35.69 40.26-35.69 40.26 0 36.11 0 36.11-23Q36.11-26.95 36.45-31.59L36.45-31.59 36.25-31.59 24.05 0ZM60.74 0.49L60.74 0.49Q54.81 0.49 51.38-3.13 47.95-6.74 47.95-13.16L47.95-13.16Q47.95-19.63 51.13-23.44 54.32-27.25 59.69-27.25L59.69-27.25Q64.72-27.25 67.65-23.94 70.58-20.63 70.58-15.21L70.58-15.21 70.58-12.65 52.15-12.65Q52.27-7.93 54.53-5.49 56.78-3.05 60.89-3.05L60.89-3.05Q65.21-3.05 69.43-4.86L69.43-4.86 69.43-1.25Q67.28-0.32 65.37 0.09 63.45 0.49 60.74 0.49ZM59.64-23.85L59.64-23.85Q56.42-23.85 54.5-21.75 52.59-19.65 52.24-15.94L52.24-15.94 66.23-15.94Q66.23-19.78 64.52-21.81 62.81-23.85 59.64-23.85ZM94.75-7.3L94.75-7.3Q94.75-3.56 91.96-1.54 89.18 0.49 84.15 0.49L84.15 0.49Q78.83 0.49 75.85-1.2L75.85-1.2 75.85-4.96Q77.78-3.98 79.99-3.42 82.2-2.86 84.25-2.86L84.25-2.86Q87.42-2.86 89.13-3.87 90.84-4.88 90.84-6.96L90.84-6.96Q90.84-8.52 89.48-9.63 88.13-10.74 84.2-12.26L84.2-12.26Q80.46-13.65 78.89-14.69 77.31-15.72 76.55-17.04 75.78-18.36 75.78-20.19L75.78-20.19Q75.78-23.46 78.44-25.35 81.1-27.25 85.74-27.25L85.74-27.25Q90.06-27.25 94.18-25.49L94.18-25.49 92.74-22.19Q88.72-23.85 85.44-23.85L85.44-23.85Q82.56-23.85 81.1-22.95 79.63-22.05 79.63-20.46L79.63-20.46Q79.63-19.38 80.18-18.63 80.73-17.87 81.95-17.19 83.17-16.5 86.64-15.21L86.64-15.21Q91.4-13.48 93.07-11.72 94.75-9.96 94.75-7.3ZM118.6-7.3L118.6-7.3Q118.6-3.56 115.81-1.54 113.03 0.49 108 0.49L108 0.49Q102.68 0.49 99.7-1.2L99.7-1.2 99.7-4.96Q101.63-3.98 103.84-3.42 106.05-2.86 108.1-2.86L108.1-2.86Q111.27-2.86 112.98-3.87 114.69-4.88 114.69-6.96L114.69-6.96Q114.69-8.52 113.33-9.63 111.98-10.74 108.05-12.26L108.05-12.26Q104.31-13.65 102.74-14.69 101.16-15.72 100.4-17.04 99.63-18.36 99.63-20.19L99.63-20.19Q99.63-23.46 102.29-25.35 104.95-27.25 109.59-27.25L109.59-27.25Q113.91-27.25 118.03-25.49L118.03-25.49 116.59-22.19Q112.57-23.85 109.29-23.85L109.29-23.85Q106.41-23.85 104.95-22.95 103.48-22.05 103.48-20.46L103.48-20.46Q103.48-19.38 104.03-18.63 104.58-17.87 105.8-17.19 107.02-16.5 110.49-15.21L110.49-15.21Q115.25-13.48 116.92-11.72 118.6-9.96 118.6-7.3ZM144.64 0L141.64 0 140.83-3.81 140.64-3.81Q138.64-1.29 136.65-0.4 134.66 0.49 131.68 0.49L131.68 0.49Q127.7 0.49 125.44-1.56 123.18-3.61 123.18-7.4L123.18-7.4Q123.18-15.5 136.15-15.89L136.15-15.89 140.69-16.04 140.69-17.7Q140.69-20.85 139.33-22.35 137.98-23.85 135-23.85L135-23.85Q131.66-23.85 127.43-21.8L127.43-21.8 126.19-24.9Q128.16-25.98 130.52-26.59 132.88-27.2 135.24-27.2L135.24-27.2Q140.03-27.2 142.34-25.07 144.64-22.95 144.64-18.26L144.64-18.26 144.64 0ZM132.49-2.86L132.49-2.86Q136.27-2.86 138.43-4.93 140.59-7.01 140.59-10.74L140.59-10.74 140.59-13.16 136.54-12.99Q131.7-12.82 129.57-11.49 127.43-10.16 127.43-7.35L127.43-7.35Q127.43-5.15 128.76-4 130.09-2.86 132.49-2.86ZM165.64-26.76L174.89-26.76 174.89-24.19 169.93-23.61Q170.62-22.75 171.15-21.37 171.69-20 171.69-18.26L171.69-18.26Q171.69-14.33 169.01-11.99 166.32-9.64 161.63-9.64L161.63-9.64Q160.44-9.64 159.39-9.84L159.39-9.84Q156.8-8.47 156.8-6.4L156.8-6.4Q156.8-5.3 157.7-4.77 158.61-4.25 160.8-4.25L160.8-4.25 165.54-4.25Q169.88-4.25 172.22-2.42 174.55-0.59 174.55 2.91L174.55 2.91Q174.55 7.35 170.98 9.68 167.42 12.01 160.58 12.01L160.58 12.01Q155.33 12.01 152.49 10.06 149.65 8.11 149.65 4.54L149.65 4.54Q149.65 2.1 151.21 0.32 152.77-1.46 155.6-2.1L155.6-2.1Q154.58-2.56 153.88-3.54 153.19-4.52 153.19-5.81L153.19-5.81Q153.19-7.28 153.97-8.37 154.75-9.47 156.43-10.5L156.43-10.5Q154.36-11.35 153.05-13.4 151.75-15.45 151.75-18.09L151.75-18.09Q151.75-22.49 154.38-24.87 157.02-27.25 161.85-27.25L161.85-27.25Q163.95-27.25 165.64-26.76L165.64-26.76ZM153.55 4.49L153.55 4.49Q153.55 6.67 155.38 7.79 157.21 8.91 160.63 8.91L160.63 8.91Q165.73 8.91 168.19 7.39 170.64 5.86 170.64 3.25L170.64 3.25Q170.64 1.07 169.3 0.23 167.96-0.61 164.25-0.61L164.25-0.61 159.39-0.61Q156.63-0.61 155.09 0.71 153.55 2.03 153.55 4.49ZM155.75-18.19L155.75-18.19Q155.75-15.38 157.34-13.94 158.92-12.5 161.76-12.5L161.76-12.5Q167.69-12.5 167.69-18.26L167.69-18.26Q167.69-24.29 161.68-24.29L161.68-24.29Q158.83-24.29 157.29-22.75 155.75-21.22 155.75-18.19ZM191.68 0.49L191.68 0.49Q185.75 0.49 182.32-3.13 178.89-6.74 178.89-13.16L178.89-13.16Q178.89-19.63 182.08-23.44 185.26-27.25 190.63-27.25L190.63-27.25Q195.66-27.25 198.59-23.94 201.52-20.63 201.52-15.21L201.52-15.21 201.52-12.65 183.09-12.65Q183.21-7.93 185.47-5.49 187.73-3.05 191.83-3.05L191.83-3.05Q196.15-3.05 200.38-4.86L200.38-4.86 200.38-1.25Q198.23-0.32 196.31 0.09 194.39 0.49 191.68 0.49ZM190.59-23.85L190.59-23.85Q187.36-23.85 185.45-21.75 183.53-19.65 183.19-15.94L183.19-15.94 197.18-15.94Q197.18-19.78 195.47-21.81 193.76-23.85 190.59-23.85Z" opacity="1" transform="matrix(1,0,0,1,0,0)" fill="#010c80" class="undefined-yy-0"></path></svg></g><g><svg version="1.1" xmlns="http://www.w3.org/2000/svg" xmlns:xlink="http://www.w3.org/1999/xlink" x="215.73085937499997" y="0" viewBox="0 7.5 100 85" enable-background="new 0 7.5 100 85" xml:space="preserve" width="95.17647058823529" height="80.89999999999999" class="icon-cg-0" data-fill-palette-color="accent" id="cg-0"><path d="M0 7.5v63.333h20V92.5l20-21.667h60V7.5H0zM86.417 33.997H14.693V23.889h71.726v10.108H86.417zM86.417 52.763H14.693V42.656h71.726v10.107H86.417z" fill="#00adff" data-fill-palette-color="accent"></path></svg></g><g transform="matrix(1,0,0,1,330.0073299632353,14.302539062499996)"><svg width="132.2509765625" viewBox="4.91 -37.99 132.24 38.480000000000004" height="38.4765625" data-palette-color="#010c80"><path d="M4.91 0L4.91-35.69 14.99-35.69Q22.09-35.69 25.27-33.57 28.44-31.45 28.44-26.86L28.44-26.86Q28.44-23.68 26.67-21.62 24.9-19.56 21.51-18.95L21.51-18.95 21.51-18.7Q29.64-17.31 29.64-10.16L29.64-10.16Q29.64-5.37 26.4-2.69 23.17 0 17.36 0L17.36 0 4.91 0ZM9.06-32.1L9.06-20.41 15.89-20.41Q20.29-20.41 22.22-21.79 24.15-23.17 24.15-26.44L24.15-26.44Q24.15-29.44 22-30.77 19.85-32.1 15.16-32.1L15.16-32.1 9.06-32.1ZM16.16-16.89L9.06-16.89 9.06-3.54 16.5-3.54Q20.83-3.54 23.01-5.21 25.2-6.88 25.2-10.45L25.2-10.45Q25.2-13.77 22.96-15.33 20.73-16.89 16.16-16.89L16.16-16.89ZM59.79-13.4L59.79-13.4Q59.79-6.86 56.49-3.19 53.2 0.49 47.39 0.49L47.39 0.49Q43.8 0.49 41.01-1.2 38.23-2.88 36.72-6.03 35.2-9.18 35.2-13.4L35.2-13.4Q35.2-19.95 38.47-23.6 41.75-27.25 47.56-27.25L47.56-27.25Q53.17-27.25 56.48-23.51 59.79-19.78 59.79-13.4ZM39.4-13.4L39.4-13.4Q39.4-8.28 41.45-5.59 43.5-2.91 47.48-2.91L47.48-2.91Q51.46-2.91 53.53-5.58 55.59-8.25 55.59-13.4L55.59-13.4Q55.59-18.51 53.53-21.15 51.46-23.8 47.43-23.8L47.43-23.8Q43.45-23.8 41.43-21.19 39.4-18.58 39.4-13.4ZM86.35 0L83.34 0 82.54-3.81 82.34-3.81Q80.34-1.29 78.35-0.4 76.36 0.49 73.38 0.49L73.38 0.49Q69.4 0.49 67.15-1.56 64.89-3.61 64.89-7.4L64.89-7.4Q64.89-15.5 77.85-15.89L77.85-15.89 82.39-16.04 82.39-17.7Q82.39-20.85 81.04-22.35 79.68-23.85 76.7-23.85L76.7-23.85Q73.36-23.85 69.14-21.8L69.14-21.8 67.89-24.9Q69.87-25.98 72.22-26.59 74.58-27.2 76.95-27.2L76.95-27.2Q81.73-27.2 84.04-25.07 86.35-22.95 86.35-18.26L86.35-18.26 86.35 0ZM74.19-2.86L74.19-2.86Q77.97-2.86 80.13-4.93 82.29-7.01 82.29-10.74L82.29-10.74 82.29-13.16 78.24-12.99Q73.41-12.82 71.27-11.49 69.14-10.16 69.14-7.35L69.14-7.35Q69.14-5.15 70.47-4 71.8-2.86 74.19-2.86ZM106.9-27.25L106.9-27.25Q108.68-27.25 110.1-26.95L110.1-26.95 109.54-23.19Q107.88-23.56 106.61-23.56L106.61-23.56Q103.36-23.56 101.05-20.92 98.75-18.29 98.75-14.36L98.75-14.36 98.75 0 94.69 0 94.69-26.76 98.04-26.76 98.5-21.8 98.7-21.8Q100.19-24.41 102.29-25.83 104.39-27.25 106.9-27.25ZM133.85 0L133.32-3.59 133.1-3.59Q130.29 0.49 124.7 0.49L124.7 0.49Q119.45 0.49 116.53-3.1 113.61-6.69 113.61-13.31L113.61-13.31Q113.61-19.92 116.54-23.58 119.47-27.25 124.7-27.25L124.7-27.25Q130.14-27.25 133.05-23.29L133.05-23.29 133.36-23.29 133.19-25.22 133.1-27.1 133.1-37.99 137.15-37.99 137.15 0 133.85 0ZM125.21-2.91L125.21-2.91Q129.36-2.91 131.23-5.16 133.1-7.42 133.1-12.45L133.1-12.45 133.1-13.31Q133.1-18.99 131.2-21.42 129.31-23.85 125.16-23.85L125.16-23.85Q121.6-23.85 119.7-21.08 117.81-18.31 117.81-13.26L117.81-13.26Q117.81-8.13 119.69-5.52 121.57-2.91 125.21-2.91Z" opacity="1" transform="matrix(1,0,0,1,0,0)" fill="#010c80" class="undefined-yy-1"></path></svg></g></svg></g></svg></g></svg></g></svg></g></svg></g><defs></defs></svg><rect width="395.52" height="69.22010388626428" fill="none" stroke="none" visibility="hidden"></rect></g></svg></g></svg>